<?xml version="1.0" standalone="no"?>
<!DOCTYPE svg PUBLIC "-//W3C//DTD SVG 20010904//EN"
 "http://www.w3.org/TR/2001/REC-SVG-20010904/DTD/svg10.dtd">
<svg version="1.0" xmlns="http://www.w3.org/2000/svg"
 width="512.000000pt" height="512.000000pt" viewBox="0 0 512.000000 512.000000"
 preserveAspectRatio="xMidYMid meet">
<metadata>
Created by potrace 1.14, written by Peter Selinger 2001-2017
</metadata>
<g transform="translate(0.000000,512.000000) scale(0.100000,-0.100000)"
fill="#000000" stroke="none">
<path d="M0 5080 l0 -40 80 0 c47 0 80 4 80 10 0 6 7 10 15 10 8 0 15 -4 15
-8 0 -15 37 -52 44 -45 3 3 6 -13 6 -36 0 -23 6 -49 14 -57 17 -16 46 -19 46
-4 0 6 5 10 10 10 6 0 10 -9 10 -20 0 -11 -4 -20 -9 -20 -4 0 -11 -33 -15 -72
-4 -40 -9 -81 -12 -91 -4 -13 0 -20 14 -24 12 -3 23 -11 26 -19 3 -8 12 -14
21 -14 8 0 15 -4 15 -10 0 -5 14 -10 30 -10 l30 0 0 -78 0 -78 -62 3 c-35 1
-57 0 -51 -3 7 -3 13 -11 13 -18 0 -14 -62 -46 -89 -46 -26 0 -31 -19 -31
-106 0 -67 10 -94 23 -61 4 10 6 10 6 0 1 -8 15 -13 36 -13 28 0 35 4 35 20 0
26 25 31 140 28 79 -3 95 0 95 12 0 8 7 18 15 22 13 6 13 7 -1 7 -9 1 -22 7
-28 15 -19 22 1 28 113 33 55 2 105 8 110 13 11 11 -56 24 -89 18 -24 -5 -25
-3 -23 36 1 37 2 38 5 9 4 -32 5 -33 54 -33 27 0 49 5 49 10 0 6 9 10 20 10
11 0 20 5 20 11 0 5 -5 7 -10 4 -6 -3 -13 1 -16 9 -6 16 -41 25 -114 29 l-45
2 -1 130 c0 72 -4 140 -8 153 -5 16 -3 22 7 22 20 0 37 -52 37 -111 l0 -49 35
0 c19 0 35 5 35 10 0 6 -13 10 -30 10 -26 0 -30 3 -30 29 0 20 6 30 20 34 14
3 20 14 20 31 0 19 -5 26 -20 26 -18 0 -20 7 -20 60 0 53 -2 60 -20 60 -11 0
-20 4 -20 10 0 5 -13 7 -30 4 -27 -6 -30 -4 -30 20 0 34 -21 34 -92 1 -29 -14
-61 -25 -70 -25 -26 0 -22 28 5 33 13 2 2 7 -30 12 -29 4 -53 10 -53 12 0 15
34 33 63 33 31 0 35 4 41 31 8 42 2 49 -45 49 -32 0 -39 -3 -39 -20 0 -11 -7
-20 -15 -20 -20 0 -65 45 -65 65 0 13 -18 15 -120 15 l-120 0 0 -40z m560
-191 c0 -5 -28 -9 -62 -8 l-63 1 40 12 c42 12 85 10 85 -5z m-80 -485 c0 -8
-4 -12 -10 -9 -5 3 -10 10 -10 16 0 5 5 9 10 9 6 0 10 -7 10 -16z m-216 -82
c3 -5 -1 -9 -9 -9 -8 0 -12 4 -9 9 3 4 7 8 9 8 2 0 6 -4 9 -8z m119 -9 c-13
-2 -33 -2 -45 0 -13 2 -3 4 22 4 25 0 35 -2 23 -4z"/>
<path d="M472 5075 c2 -38 7 -51 21 -53 9 -2 17 1 17 7 0 6 -7 11 -15 11 -24
0 -17 18 8 22 27 4 29 31 2 37 -11 2 -23 8 -28 15 -4 6 -6 -11 -5 -39z"/>
<path d="M741 5043 c-1 -48 -5 -83 -11 -83 -18 0 -10 -19 10 -25 27 -8 61 -45
54 -57 -3 -5 3 -12 15 -15 12 -3 24 -17 28 -32 3 -14 10 -29 15 -32 5 -3 9
-75 9 -160 0 -109 3 -155 12 -161 8 -5 -7 -16 -40 -30 -52 -21 -53 -23 -51
-62 1 -53 4 -57 34 -46 24 9 25 8 22 -17 -2 -21 -8 -28 -25 -28 -27 0 -38 -11
-26 -27 15 -20 13 -55 -3 -69 -8 -6 -14 -18 -14 -25 0 -8 -5 -14 -11 -14 -6 0
-8 -9 -4 -20 10 -30 -3 -57 -30 -64 -21 -5 -24 -11 -22 -44 1 -20 6 -43 10
-50 5 -7 2 -14 -7 -18 -18 -7 -21 -40 -5 -50 7 -4 9 -26 5 -63 -3 -31 -9 -99
-12 -151 -4 -54 -11 -98 -18 -102 -7 -5 -10 -41 -9 -105 1 -60 -4 -112 -12
-137 -8 -22 -11 -47 -7 -55 4 -9 7 -27 5 -41 -4 -51 -4 -86 0 -120 3 -19 1
-39 -2 -45 -4 -5 -7 -44 -7 -85 1 -71 2 -75 26 -80 48 -10 91 -50 54 -50 -13
0 -15 -7 -10 -36 5 -22 3 -41 -5 -50 -9 -11 -8 -14 2 -15 8 0 5 -4 -6 -8 -11
-5 -27 -5 -36 0 -11 5 -28 3 -48 -7 -17 -8 -35 -13 -41 -9 -11 7 -51 -12 -62
-29 -4 -6 -5 -19 -2 -28 6 -21 -6 -24 -24 -6 -9 9 -12 8 -12 -5 0 -9 -6 -20
-14 -24 -8 -4 -14 -15 -14 -23 2 -24 -25 -80 -38 -80 -7 0 -15 11 -18 25 -4
14 -17 31 -30 36 -13 6 -28 25 -33 43 -7 27 -14 31 -47 34 -23 2 -42 -2 -46
-9 -6 -8 -12 -5 -20 11 l-12 23 -14 -24 c-7 -13 -13 -32 -14 -41 0 -10 -4 -18
-9 -18 -6 0 1 -19 14 -42 32 -55 34 -118 5 -118 -17 0 -20 7 -22 43 l-1 42 -7
-45 -7 -45 -1 39 c-1 22 -4 37 -6 35 -8 -8 -10 -74 -2 -76 5 -1 13 -7 17 -15
7 -10 9 -10 9 0 0 8 21 12 73 12 72 0 74 1 111 39 36 36 40 38 55 24 12 -12
13 -17 3 -21 -7 -2 -12 -23 -12 -57 0 -38 -4 -54 -15 -59 -8 -3 -15 -14 -15
-24 0 -21 -34 -32 -96 -32 -19 0 -34 -4 -34 -10 0 -6 -33 -10 -77 -11 -43 -1
-70 -3 -60 -6 25 -6 21 -23 -5 -24 -22 -1 -22 -1 2 -9 40 -13 60 -11 60 5 0
12 16 15 80 15 47 0 80 4 80 10 0 6 11 10 25 10 23 0 25 -4 25 -40 0 -36 -2
-40 -25 -40 -18 0 -25 -5 -25 -20 0 -17 -7 -20 -40 -20 -22 0 -43 -1 -47 -2
-5 -2 -9 8 -11 21 -3 19 -8 22 -33 19 -16 -3 -29 -1 -29 2 0 13 -133 20 -147
9 -9 -8 -13 -44 -13 -132 l0 -121 40 39 c22 21 40 34 40 27 0 -7 5 -12 11 -12
5 0 9 10 7 22 -4 31 20 34 28 4 3 -14 12 -26 20 -26 17 0 19 -36 2 -43 -10 -4
-10 -6 0 -6 7 -1 12 -16 12 -40 l0 -39 -80 -7 c-79 -7 -112 -25 -46 -25 42 0
66 -8 66 -23 0 -7 -4 -7 -12 1 -14 14 -88 16 -88 2 0 -5 19 -11 43 -12 l42 -1
-40 -6 -40 -6 -3 -123 c-3 -105 -1 -122 13 -122 8 0 15 -4 15 -10 0 -5 -6 -10
-14 -10 -12 0 -14 -123 -15 -790 l-2 -790 2561 0 2560 0 0 126 0 125 -92 43
c-51 24 -122 53 -158 65 -36 12 -74 26 -85 31 -66 29 -157 63 -280 105 -165
55 -186 65 -244 117 -28 24 -58 41 -83 44 -25 4 -39 12 -40 23 -3 34 4 64 18
78 18 18 18 50 -1 103 -8 23 -15 53 -15 67 0 33 -53 190 -81 238 -43 75 -167
214 -205 230 -35 14 -94 22 -100 14 -3 -5 -6 -82 -8 -172 -2 -149 -4 -167 -30
-232 -35 -91 -151 -311 -235 -448 -36 -59 -70 -115 -76 -125 -35 -61 -119
-152 -262 -282 -79 -71 -90 -80 -102 -80 -5 0 -12 -8 -15 -17 -3 -10 -18 -24
-33 -30 -32 -15 -183 -18 -183 -3 0 6 -14 10 -31 10 -17 0 -28 -4 -24 -10 4
-7 -52 -10 -159 -10 -143 0 -169 2 -187 17 -30 25 -39 54 -22 71 9 9 11 22 7
36 -9 24 -8 39 2 80 5 21 3 31 -9 38 -9 5 -24 24 -33 44 -17 35 -16 35 10 63
24 25 31 27 67 21 23 -4 42 -3 45 2 4 6 10 5 14 -3 12 -18 43 -21 36 -3 -4 11
-2 12 14 4 21 -11 36 2 24 22 -4 7 -3 8 5 4 6 -4 17 -3 24 2 18 13 97 31 113
25 8 -3 14 -1 14 5 0 5 6 9 13 9 35 -4 134 29 152 50 11 13 26 23 33 23 7 0
12 5 12 10 0 6 10 10 23 10 12 0 31 7 41 15 11 8 15 15 9 15 -6 0 14 26 45 57
32 32 80 83 108 113 29 30 68 69 87 85 37 31 105 140 99 159 -2 6 -1 8 3 4 9
-9 55 46 84 102 13 25 31 54 40 65 24 29 52 95 46 106 -4 5 1 9 9 9 8 0 18 5
22 11 15 24 64 175 63 194 0 12 -5 6 -11 -15 -5 -19 -16 -42 -24 -51 -8 -8
-14 -23 -14 -32 0 -9 -5 -16 -11 -14 -14 3 -30 -49 -22 -71 4 -10 3 -14 -2
-10 -4 4 -14 0 -22 -8 -8 -8 -19 -11 -25 -8 -6 4 -8 -1 -4 -12 4 -14 -3 -25
-23 -39 -16 -10 -27 -23 -25 -27 3 -4 -2 -8 -10 -8 -9 0 -15 3 -15 8 5 31 -3
61 -15 56 -15 -6 -17 -54 -2 -54 4 0 5 -7 2 -16 -4 -10 -2 -13 6 -8 8 5 9 2 5
-10 -4 -10 -7 -22 -7 -27 0 -5 -7 -9 -16 -9 -8 0 -13 -4 -10 -8 5 -9 -24 -46
-41 -53 -4 -2 -19 -27 -32 -56 -22 -48 -46 -71 -59 -58 -3 3 0 5 6 5 7 0 12 4
12 10 0 5 -7 7 -15 4 -8 -4 -15 -14 -15 -23 0 -24 -19 -41 -38 -34 -9 4 -13 2
-9 -4 4 -6 -3 -13 -14 -16 -18 -5 -20 -2 -16 19 4 24 4 24 -14 8 -28 -25 -34
-10 -7 18 13 14 29 23 37 20 21 -7 30 18 25 75 -4 43 -2 55 15 72 24 24 28 46
7 38 -10 -4 -13 -1 -9 9 3 7 16 14 30 14 18 0 24 4 19 15 -4 12 0 14 21 9 24
-6 25 -5 19 20 -4 15 -2 26 4 26 5 0 10 -3 10 -7 0 -5 14 -8 30 -8 24 0 27 2
16 11 -11 8 -13 19 -6 47 7 33 6 37 -12 37 -15 0 -18 -5 -13 -22 6 -22 5 -22
-6 -3 -24 39 -44 53 -57 39 -7 -7 -12 -20 -12 -29 0 -11 -7 -15 -20 -13 -12 2
-19 6 -18 9 2 4 -6 16 -16 28 -15 16 -17 24 -8 33 8 8 7 20 -3 46 -17 40 -18
45 -7 38 5 -3 4 10 -2 29 -6 18 -13 32 -17 29 -4 -2 -9 3 -13 11 -3 8 -13 15
-21 15 -12 0 -15 6 -10 20 5 16 3 19 -10 13 -10 -3 -20 -1 -24 5 -4 6 -16 13
-27 15 -11 1 -30 13 -42 25 -20 20 -24 21 -38 7 -17 -17 -28 -20 -19 -6 3 5 1
12 -5 16 -5 3 -10 1 -10 -5 0 -7 -7 -10 -15 -6 -8 3 -15 1 -15 -3 0 -15 -32
-22 -46 -10 -7 6 -18 8 -24 4 -7 -4 -14 2 -17 14 -5 19 -7 19 -29 4 -23 -14
-24 -14 -18 2 10 25 -21 45 -57 38 -19 -4 -29 -1 -29 6 0 8 8 10 20 6 11 -3
20 -2 20 4 0 5 -9 13 -20 16 -11 3 -20 12 -20 19 0 27 -105 47 -128 24 -8 -8
-15 -8 -28 3 -14 11 -18 11 -30 -6 -10 -14 -14 -15 -14 -4 -1 10 -5 9 -15 -5
-8 -11 -15 -16 -15 -12 0 4 -7 0 -16 -9 -25 -25 -39 -12 -38 36 1 41 -2 46
-50 86 -31 25 -53 51 -54 65 -6 51 -12 67 -47 128 -21 36 -19 70 4 70 23 0 72
90 64 119 -3 12 1 31 10 44 12 18 13 33 5 68 -11 52 -11 45 -3 184 7 121 18
145 66 145 24 0 32 -10 81 -107 113 -226 198 -343 248 -343 14 0 38 -7 54 -15
16 -9 64 -21 105 -26 159 -23 368 22 449 95 60 54 121 188 147 326 8 43 35
121 48 138 5 6 18 12 28 12 27 0 29 11 15 80 -8 36 -12 70 -9 76 4 12 -29 18
-172 31 -53 4 -72 9 -55 13 l25 6 -23 13 c-12 6 -20 17 -16 23 4 7 -1 8 -16 3
-14 -5 -20 -3 -16 3 3 6 -5 19 -19 30 -13 11 -21 23 -17 27 4 5 -1 5 -10 2
-10 -4 -18 -2 -18 3 0 6 -25 22 -56 37 -41 19 -58 23 -67 14 -16 -16 -30 -14
-23 4 3 8 1 15 -4 15 -5 0 -10 -8 -12 -17 -3 -14 -19 -17 -114 -18 -61 -1
-116 -5 -122 -9 -7 -4 -12 -4 -12 1 0 4 -25 6 -55 5 -34 -3 -53 -8 -49 -14 4
-7 -7 -8 -34 -3 -25 4 -42 2 -47 -4 -3 -6 -11 -11 -16 -11 -6 0 -7 5 -4 10 3
6 4 10 1 10 -3 0 -14 -18 -24 -40 -10 -22 -22 -37 -27 -33 -4 5 -5 -2 -2 -14
6 -25 -17 -33 -26 -10 -3 7 -6 5 -6 -5 -1 -10 4 -18 9 -18 6 0 5 -8 -2 -20 -7
-11 -22 -19 -33 -18 -11 0 -28 -3 -37 -7 -11 -4 -18 -3 -18 4 0 17 -27 13 -34
-5 -12 -31 -7 -52 12 -47 12 3 18 -2 19 -16 1 -18 -4 -21 -33 -21 -19 0 -34 5
-34 11 0 5 -4 8 -8 5 -4 -2 -14 0 -22 5 -13 7 -13 10 -1 18 16 11 -3 26 -20
15 -8 -5 -10 1 -7 20 3 14 2 26 -2 26 -4 0 -12 10 -18 23 -10 21 -11 21 -11
-7 -1 -25 -3 -27 -17 -15 -13 10 -17 10 -25 -2 -7 -11 -9 -10 -9 6 0 11 -11
32 -25 47 -14 15 -25 32 -25 38 0 15 -51 64 -70 68 -8 2 -24 12 -35 22 -30 28
-73 43 -140 48 -61 4 -81 11 -57 19 9 4 10 8 2 18 -17 20 -13 133 5 151 16 16
95 29 95 15 0 -6 7 -8 16 -4 15 6 15 7 -1 19 -9 7 -14 17 -10 23 3 6 1 11 -4
11 -6 0 -11 9 -11 20 0 20 -14 27 -23 13 -2 -5 -2 -3 -1 4 2 7 -1 15 -7 18 -5
4 -7 11 -3 16 3 5 1 15 -4 22 -6 7 -13 39 -16 72 -13 120 -13 136 0 131 15 -6
44 25 44 47 0 9 4 18 10 22 5 3 7 12 3 20 -3 9 1 15 11 15 9 0 16 5 16 10 0 6
33 10 83 9 99 -2 132 3 156 25 22 20 68 21 114 1 46 -19 55 -19 60 3 4 16 5
16 6 0 1 -19 12 -23 25 -11 10 10 96 31 90 22 -2 -4 5 -7 16 -6 11 1 20 4 20
7 0 3 16 6 35 7 30 1 34 -1 24 -13 -6 -8 -18 -14 -25 -14 -8 0 -14 -4 -14 -10
0 -14 16 -12 29 4 7 8 21 12 31 9 22 -6 28 12 8 21 -7 3 -2 3 11 0 14 -4 72
-6 129 -5 58 1 110 -2 116 -7 19 -14 96 -36 103 -29 3 4 12 2 20 -4 7 -6 13
-8 13 -5 0 4 13 -2 29 -13 19 -14 40 -19 65 -18 20 2 36 0 36 -5 0 -4 27 -6
60 -5 33 1 60 6 60 11 0 5 6 3 14 -3 7 -6 24 -10 37 -10 13 1 42 -7 64 -17 35
-16 37 -19 18 -22 -28 -4 -29 -13 -3 -30 11 -7 20 -19 20 -27 0 -13 3 -13 20
-3 10 7 23 9 27 5 4 -5 2 -12 -5 -16 -9 -5 -5 -18 16 -47 27 -38 27 -40 10
-57 -18 -17 -18 -29 -1 -91 4 -15 1 -18 -17 -13 -20 5 -21 3 -14 -21 4 -15 8
-37 8 -49 1 -13 7 -23 16 -23 12 0 12 -2 1 -9 -10 -6 -10 -10 -1 -16 8 -5 9
-10 2 -14 -6 -3 -13 -26 -15 -51 -9 -73 -19 -120 -27 -120 -15 0 2 -40 26 -63
13 -12 24 -33 24 -47 0 -20 2 -22 10 -10 9 13 11 13 20 0 9 -13 10 -13 10 0 1
39 20 -23 23 -73 l2 -54 65 -2 c62 -2 131 -7 175 -15 17 -2 20 -12 23 -69 3
-67 -1 -75 -27 -58 -11 7 -14 25 -12 59 2 41 -1 50 -16 54 -33 9 -43 -1 -32
-30 6 -15 7 -23 3 -19 -4 4 -13 -6 -20 -22 -11 -26 -19 -31 -63 -37 -28 -4
-51 -8 -51 -11 0 -2 9 -24 20 -49 12 -24 27 -86 35 -137 8 -50 18 -112 24
-137 5 -27 6 -70 0 -110 -25 -191 -31 -226 -40 -235 -7 -6 -12 -6 -17 2 -4 7
-8 -12 -8 -41 0 -40 4 -52 13 -49 24 9 65 -7 59 -23 -3 -9 -1 -12 4 -9 6 4 10
-5 10 -20 0 -14 -4 -24 -9 -20 -5 3 -12 -4 -16 -15 -3 -11 -9 -20 -13 -20 -18
-1 -32 -18 -26 -33 3 -9 10 -14 15 -11 5 3 9 -5 9 -18 l-1 -23 -20 24 c-28 34
-34 20 -8 -23 21 -36 21 -36 1 -54 -11 -9 -23 -36 -26 -60 l-6 -43 24 16 c18
12 27 29 32 63 3 26 17 70 29 98 13 28 25 77 28 110 3 32 12 95 21 139 10 44
19 107 22 140 3 33 9 75 14 93 5 19 5 32 -1 32 -5 0 -9 16 -7 35 1 19 7 35 14
35 14 0 23 71 12 97 -24 63 6 183 47 183 12 0 42 13 66 30 24 16 52 30 62 30
21 0 32 27 50 118 17 84 9 308 -10 305 -17 -4 -16 5 2 23 15 15 12 56 -7 99
-14 34 -58 89 -58 74 0 -8 -7 -1 -15 15 -22 42 -19 65 10 72 27 7 34 24 9 24
-8 0 -12 5 -9 10 3 6 15 10 26 10 12 0 19 7 19 18 0 10 7 28 16 40 17 24 18
23 -41 38 -27 7 -28 8 -7 12 12 2 27 13 33 24 9 18 8 24 -7 35 -10 7 -12 13
-6 13 8 0 10 9 6 25 -4 16 -2 25 6 25 22 0 41 29 57 87 23 78 22 132 -1 145
-35 20 -91 84 -94 108 -1 13 -11 30 -22 37 -11 8 -20 22 -20 31 0 12 -3 13 -8
5 -15 -23 -35 4 -35 48 0 45 -22 88 -44 89 -7 0 -13 5 -13 10 0 6 -6 10 -14
10 -12 0 -23 14 -27 38 -1 4 -10 19 -21 35 -11 15 -17 27 -14 27 3 0 -1 8 -9
18 -8 9 -14 19 -13 22 4 7 -41 78 -66 104 -12 13 -29 25 -38 29 -9 3 -20 22
-24 42 -4 23 -10 32 -14 25 -5 -9 -9 -9 -14 -1 -4 6 -5 15 -2 20 8 13 -60 87
-104 113 -19 12 -39 28 -43 35 -5 7 -13 10 -19 7 -6 -4 -14 -1 -18 6 -10 16
-123 40 -131 28 -10 -15 -100 54 -137 107 -20 29 -53 64 -72 78 -33 23 -46 25
-170 30 -137 5 -390 46 -417 68 -9 8 -177 9 -581 5 -312 -4 -577 -8 -589 -10
-54 -11 -519 -25 -531 -17 -5 3 -12 13 -15 21 -3 8 -6 -22 -6 -67z m1819 -439
c0 -8 -4 -12 -10 -9 -5 3 -10 10 -10 16 0 5 5 9 10 9 6 0 10 -7 10 -16z m658
-41 c24 -35 34 -63 23 -63 -5 0 -14 7 -21 15 -7 8 -19 15 -26 15 -8 0 -14 4
-14 10 0 5 7 7 15 4 11 -5 13 -2 9 10 -3 9 -10 16 -15 16 -4 0 -13 9 -19 21
-10 19 -10 20 9 10 11 -6 28 -23 39 -38z m147 -13 c-3 -5 -1 -10 6 -10 7 0 10
-3 6 -6 -9 -9 -28 6 -22 17 4 5 8 9 11 9 3 0 2 -4 -1 -10z m25 -41 c0 -4 3
-15 7 -25 6 -16 4 -16 -20 2 -32 23 -33 30 -7 30 11 0 20 -3 20 -7z m-170 -31
c0 -6 -6 -5 -15 2 -8 7 -15 14 -15 16 0 2 7 1 15 -2 8 -4 15 -11 15 -16z
m-550 -8 c0 -5 -4 -10 -10 -10 -5 0 -10 5 -10 10 0 6 5 10 10 10 6 0 10 -4 10
-10z m930 -150 c0 -5 -2 -10 -4 -10 -3 0 -8 5 -11 10 -3 6 -1 10 4 10 6 0 11
-4 11 -10z m-198 -51 c3 -19 5 -36 2 -38 -2 -2 -7 10 -10 27 -4 18 -12 32 -19
32 -7 0 -15 7 -18 14 -5 12 -1 13 16 7 14 -5 24 -20 29 -42z m258 7 c-12 -12
-41 2 -48 22 -2 8 5 8 27 -1 21 -8 27 -15 21 -21z m-255 -86 c1 -11 -2 -20 -7
-20 -4 0 -8 12 -8 27 0 30 13 24 15 -7z m272 3 c5 3 17 -1 28 -9 18 -14 18
-14 -3 -14 -29 0 -28 -18 1 -30 12 -5 16 -9 9 -9 -7 -1 -10 -5 -7 -11 3 -5 -4
-10 -16 -10 -18 0 -19 2 -9 15 11 13 9 15 -13 15 -28 0 -47 29 -19 31 16 1 16
2 0 6 -10 2 -15 10 -11 19 4 11 9 12 19 3 7 -6 17 -8 21 -6z m94 -83 c-4 -11
-6 -10 -9 5 -3 11 -9 23 -16 28 -8 5 -7 10 4 17 11 7 16 4 21 -13 3 -12 3 -29
0 -37z m66 -16 c5 -15 -16 -134 -24 -134 -2 0 -13 9 -25 20 -18 17 -19 20 -5
20 9 0 21 9 27 19 15 30 12 38 -6 13 -8 -12 -22 -22 -30 -22 -16 0 -19 16 -4
25 6 3 10 11 10 17 0 6 -7 5 -17 -3 -15 -13 -15 -12 -4 9 6 12 8 22 4 22 -4 0
1 6 11 13 25 18 56 19 63 1z m126 -131 c-7 -2 -21 -2 -30 0 -10 3 -4 5 12 5
17 0 24 -2 18 -5z m-88 -23 c3 -5 2 -10 -4 -10 -5 0 -13 5 -16 10 -3 6 -2 10
4 10 5 0 13 -4 16 -10z m75 -14 c0 -3 -4 -8 -10 -11 -5 -3 -10 -1 -10 4 0 6 5
11 10 11 6 0 10 -2 10 -4z m-66 -45 c17 -6 17 -8 4 -14 -9 -3 -24 1 -35 8 -14
11 -15 14 -3 14 8 0 24 -4 34 -8z m-344 -362 c0 -5 -4 -9 -10 -9 -5 0 -10 7
-10 16 0 8 5 12 10 9 6 -3 10 -10 10 -16z m-1646 -14 c3 -8 1 -15 -3 -15 -5 0
-11 7 -15 15 -3 8 -1 15 3 15 5 0 11 -7 15 -15z m1906 -155 c0 -5 -5 -10 -11
-10 -5 0 -7 5 -4 10 3 6 8 10 11 10 2 0 4 -4 4 -10z m130 -15 c0 -9 9 -15 21
-15 30 0 79 -62 59 -75 -15 -9 -30 4 -24 19 8 22 -17 31 -32 12 -11 -16 -14
-15 -28 13 -18 34 -21 61 -6 61 6 0 10 -7 10 -15z m-107 -35 c3 -11 2 -18 -3
-15 -4 3 -10 14 -13 25 -3 11 -2 18 3 15 4 -3 10 -14 13 -25z m-27 -30 c8 0
14 -5 14 -11 0 -5 -5 -7 -11 -3 -6 3 -15 0 -20 -7 -7 -11 -9 -11 -9 -1 0 7 -4
10 -10 7 -6 -4 -8 6 -6 27 6 46 6 46 18 16 5 -16 16 -28 24 -28z m-63 -72 c-4
-22 -4 -23 11 -4 9 11 16 15 16 9 0 -7 -4 -15 -10 -18 -5 -3 -10 -26 -10 -51
0 -24 -4 -44 -9 -44 -13 0 -22 102 -10 117 16 18 18 16 12 -9z m122 -18 c3 -5
-4 -6 -15 -3 -14 4 -20 0 -20 -11 0 -9 -4 -16 -10 -16 -5 0 -10 7 -10 15 0 8
-5 15 -11 15 -5 0 -8 4 -5 8 6 10 64 3 71 -8z m25 -71 c0 -14 -17 -10 -23 5
-4 10 -1 13 9 9 7 -3 14 -9 14 -14z m10 -52 c0 -5 -5 -5 -10 -2 -6 4 -17 1
-25 -5 -20 -17 -19 -1 2 22 13 14 18 16 25 6 4 -7 8 -17 8 -21z m-266 -33 c3
-8 2 -12 -4 -9 -6 3 -10 10 -10 16 0 14 7 11 14 -7z m100 -58 c-3 -21 -9 -35
-11 -32 -3 3 -2 21 1 42 4 20 10 34 12 31 3 -3 2 -21 -2 -41z m162 -2 c-4 -9
-9 -15 -11 -12 -3 3 -3 13 1 22 4 9 9 15 11 12 3 -3 3 -13 -1 -22z m-896 -44
c0 -5 -12 -10 -27 -9 -25 0 -26 1 -8 9 27 12 35 12 35 0z m897 -22 c-3 -7 -5
-2 -5 12 0 14 2 19 5 13 2 -7 2 -19 0 -25z m-637 -79 c22 -12 40 -29 40 -37 0
-12 3 -12 15 -2 12 10 15 10 16 -1 0 -10 2 -11 6 -1 4 9 11 8 33 -4 55 -33 77
-180 45 -304 -29 -112 -99 -201 -188 -239 -68 -29 -187 -44 -294 -39 -171 9
-244 54 -314 195 l-44 88 0 117 c0 115 0 117 29 147 35 37 116 72 176 77 25 2
45 4 45 5 0 10 195 27 282 24 94 -3 119 -7 153 -26z m-1603 -15 c-3 -3 -12 -4
-19 -1 -8 3 -5 6 6 6 11 1 17 -2 13 -5z m-63 -12 c2 -4 1 -14 -5 -22 -5 -8 -9
-10 -9 -4 0 6 -10 16 -22 22 -23 11 -23 11 4 11 15 1 29 -3 32 -7z m-77 -18
c-3 -3 -12 -4 -19 -1 -8 3 -5 6 6 6 11 1 17 -2 13 -5z m-53 -14 c-11 -4 -34
-24 -52 -44 -31 -35 -32 -40 -32 -125 0 -96 19 -166 65 -246 30 -51 99 -125
117 -125 6 0 9 -3 6 -6 -8 -7 -47 13 -75 38 -13 12 -27 17 -35 12 -7 -4 -10
-4 -6 1 5 5 -1 15 -12 22 -11 8 -27 31 -36 51 -26 60 -54 189 -54 247 0 81 40
159 90 178 25 9 47 7 24 -3z m-794 -40 c0 -43 -14 -54 -24 -17 -10 37 -7 57 9
57 11 0 15 -11 15 -40z m1362 -63 c7 -14 4 -23 -13 -38 -12 -10 -28 -19 -35
-19 -7 0 -20 -3 -30 -7 -16 -6 -16 -3 4 31 12 20 22 49 22 63 0 26 0 26 21 7
11 -10 25 -27 31 -37z m-115 27 c-3 -3 -12 -4 -19 -1 -8 3 -5 6 6 6 11 1 17
-2 13 -5z m-163 -59 c-4 -8 -8 -15 -10 -15 -2 0 -4 7 -4 15 0 8 4 15 10 15 5
0 7 -7 4 -15z m-1004 -80 c0 -37 -4 -65 -10 -65 -5 0 -10 12 -10 28 0 33 11
102 16 102 2 0 4 -29 4 -65z m1241 2 c-13 -13 -26 -3 -16 12 3 6 11 8 17 5 6
-4 6 -10 -1 -17z m-71 -59 c0 -4 -9 -13 -20 -20 -11 -7 -20 -18 -20 -25 0 -19
-17 -16 -41 8 -19 19 -19 22 -5 32 18 13 86 17 86 5z m-1283 -59 c-3 -24 0
-45 9 -56 15 -21 18 -37 5 -29 -5 3 -12 -2 -16 -12 -5 -15 -8 -15 -15 -2 -11
20 0 151 12 143 6 -3 8 -23 5 -44z m100 -16 c-3 -10 -5 -4 -5 12 0 17 2 24 5
18 2 -7 2 -21 0 -30z m1188 17 c-3 -5 -10 -10 -16 -10 -5 0 -9 5 -9 10 0 6 7
10 16 10 8 0 12 -4 9 -10z m-86 -32 c-3 -27 2 -37 16 -32 8 4 15 12 15 20 0
15 12 19 24 7 11 -12 45 -13 51 -2 4 6 12 3 20 -8 7 -10 10 -22 5 -28 -26 -31
-5 -86 38 -99 12 -4 22 -12 22 -18 0 -5 -7 -7 -16 -4 -8 3 -13 2 -10 -2 2 -4
-9 -14 -27 -22 -27 -12 -29 -14 -11 -20 33 -13 -71 -25 -202 -24 -75 1 -128 5
-140 13 -17 11 -17 12 7 7 27 -6 55 14 41 29 -4 4 4 4 17 0 15 -5 21 -4 17 3
-3 6 -20 13 -36 17 -27 6 -43 25 -21 25 6 0 9 14 8 32 -2 29 1 33 33 39 20 4
36 4 38 -2 6 -15 22 -10 22 6 0 20 38 57 50 50 6 -4 13 1 16 9 7 19 26 21 23
4z m-1242 -50 c-3 -22 -7 -41 -9 -43 -2 -3 -17 0 -34 4 l-29 9 28 1 c25 1 27
4 27 42 0 27 4 38 11 33 7 -4 9 -22 6 -46z m63 -43 c0 -8 -4 -15 -10 -15 -5 0
-7 7 -4 15 4 8 8 15 10 15 2 0 4 -7 4 -15z m90 5 c0 -5 -2 -10 -4 -10 -3 0 -8
5 -11 10 -3 6 -1 10 4 10 6 0 11 -4 11 -10z m-316 -46 c9 -22 8 -24 -9 -24 -8
0 -15 9 -15 20 0 24 15 27 24 4z m83 -166 c-2 -13 -4 -3 -4 22 0 25 2 35 4 23
2 -13 2 -33 0 -45z m55 10 c2 -20 0 -34 -4 -32 -4 3 -8 24 -7 47 1 47 6 41 11
-15z m1371 -67 c-8 -23 -8 -36 3 -55 7 -14 11 -26 9 -26 -3 0 -1 -10 4 -22 5
-13 5 -33 0 -45 -5 -13 -4 -25 1 -28 6 -4 10 -1 10 5 0 6 5 8 11 4 8 -5 8 -9
-1 -14 -7 -4 -12 -20 -12 -35 0 -14 -6 -29 -14 -32 -7 -2 -10 -11 -8 -18 4 -9
-6 -16 -29 -20 -25 -5 -34 -11 -30 -21 6 -17 29 -18 37 -1 6 12 4 -1 -8 -54
-4 -18 -15 -28 -41 -36 -19 -6 -35 -7 -35 -3 0 18 13 40 20 35 17 -11 19 14 4
44 -19 37 -23 39 -17 7 3 -15 -1 -25 -12 -30 -19 -7 -38 1 -30 14 3 5 -5 12
-17 16 -28 8 -68 53 -68 75 0 9 -9 24 -19 33 -19 17 -18 56 1 56 5 0 6 -4 3
-10 -3 -5 -1 -10 4 -10 14 0 14 31 1 66 -7 17 -7 30 -1 33 5 3 19 25 31 49 13
25 28 41 35 38 7 -2 25 2 40 10 15 8 39 14 54 14 14 0 33 5 41 10 26 16 47
-14 33 -49z m220 -154 c-3 -14 2 -29 11 -36 22 -18 20 -31 -5 -31 -23 0 -49
22 -49 41 0 14 29 49 40 49 4 0 5 -10 3 -23z m-1765 -124 c-10 -2 -28 -2 -40
0 -13 2 -5 4 17 4 22 1 32 -1 23 -4z m-261 -65 c-2 -13 -4 -3 -4 22 0 25 2 35
4 23 2 -13 2 -33 0 -45z m30 0 c-2 -13 -4 -3 -4 22 0 25 2 35 4 23 2 -13 2
-33 0 -45z m83 22 c0 -22 -4 -40 -10 -40 -5 0 -10 18 -10 40 0 22 5 40 10 40
6 0 10 -18 10 -40z m407 18 c-3 -8 -6 -5 -6 6 -1 11 2 17 5 13 3 -3 4 -12 1
-19z m-577 -19 c0 -11 -29 -19 -34 -10 -3 5 -3 10 -1 13 8 7 35 5 35 -3z
m2550 -5 c0 -14 -3 -15 -17 -3 -10 7 -20 15 -22 16 -2 2 5 3 17 3 14 0 22 -6
22 -16z m43 -45 c-7 -25 -10 -24 -15 5 -3 16 -1 23 7 19 7 -2 11 -13 8 -24z
m-2023 -49 c0 -15 -7 -20 -25 -20 -24 0 -34 18 -18 33 15 15 43 7 43 -13z
m2218 -48 c2 -7 -3 -12 -12 -12 -9 0 -16 7 -16 16 0 17 22 14 28 -4z m6 -38
c3 -8 2 -12 -4 -9 -6 3 -10 10 -10 16 0 14 7 11 14 -7z m-127 -92 c-2 -15 -2
-21 0 -14 3 6 11 12 19 12 8 0 14 5 14 10 0 15 30 12 36 -4 3 -8 18 -19 33
-24 24 -9 27 -14 23 -41 -4 -30 -3 -31 36 -31 29 0 44 -5 51 -17 5 -10 13 -14
17 -10 4 4 13 -7 19 -25 6 -18 16 -32 23 -31 7 2 12 -4 12 -12 0 -8 5 -15 12
-15 6 0 9 -3 5 -6 -3 -4 2 -14 11 -23 10 -9 12 -12 5 -7 -22 15 -44 -11 -31
-39 7 -15 7 -29 1 -40 -9 -16 -11 -16 -16 -1 -4 10 -3 15 3 11 12 -7 13 5 2
20 -14 19 -30 15 -24 -7 3 -14 1 -19 -6 -14 -7 4 -12 1 -12 -7 0 -8 -9 -22
-20 -32 -23 -21 -26 -43 -6 -51 8 -3 14 -13 14 -22 0 -9 3 -25 7 -34 4 -10 3
-18 -2 -18 -5 0 -9 -27 -9 -60 1 -33 -2 -60 -6 -60 -5 0 -8 -6 -8 -14 0 -9 -8
-12 -27 -8 -23 4 -26 3 -16 -9 13 -17 9 -127 -6 -142 -8 -8 -11 -7 -11 2 0 8
-6 11 -16 7 -13 -5 -15 0 -10 27 3 17 3 26 0 20 -7 -17 -44 -17 -44 0 0 9 -3
8 -9 -2 -5 -7 -13 -11 -19 -7 -6 3 -20 -6 -33 -21 -20 -26 -21 -26 -16 -6 3
13 1 26 -4 29 -8 5 -13 -10 -10 -30 1 -5 -5 -6 -14 -3 -8 4 -15 1 -15 -6 0 -7
-3 -8 -8 -2 -12 17 -42 17 -42 0 0 -8 -4 -15 -10 -15 -5 0 -7 -7 -4 -15 6 -13
-1 -17 -23 -14 -5 1 -7 5 -6 10 2 5 -4 9 -13 9 -10 0 -14 6 -11 15 4 8 2 17
-3 20 -4 3 -10 0 -12 -7 -3 -8 -12 -1 -23 15 -14 21 -20 25 -31 16 -8 -6 -15
-21 -15 -33 -1 -17 -2 -17 -6 -3 -5 20 -8 21 -32 5 -24 -15 -49 7 -47 41 1 13
-5 26 -11 28 -7 3 -13 -2 -13 -11 0 -9 -4 -16 -10 -16 -15 0 -12 37 5 54 8 8
15 19 15 25 0 6 6 8 13 6 6 -3 25 6 41 20 20 17 32 22 36 14 4 -6 10 -1 13 13
6 22 7 22 21 3 15 -19 15 -19 16 8 0 15 7 30 15 33 8 4 15 13 15 21 0 10 7 14
20 10 16 -4 20 0 20 20 0 20 4 24 19 20 12 -3 18 0 15 7 -5 13 61 46 90 46 12
0 16 5 13 14 -3 8 -1 16 5 18 7 3 7 12 -2 28 -8 15 -15 20 -18 12 -4 -14 -32
-17 -32 -3 0 6 -66 8 -160 6 -154 -4 -161 -3 -182 18 -16 17 -20 18 -15 5 4
-11 1 -18 -7 -18 -9 0 -12 9 -8 26 4 20 0 26 -17 31 -33 8 -56 73 -26 73 8 0
15 5 15 11 0 5 8 9 18 7 9 -1 22 0 27 4 17 10 59 12 83 4 14 -5 28 -3 37 4 7
6 24 8 38 5 26 -7 46 9 27 20 -6 4 -27 7 -46 7 l-34 0 0 54 c0 84 31 132 64
99 8 -8 19 -15 25 -15 6 0 11 -5 11 -11 0 -6 6 -9 13 -6 6 2 17 -2 22 -10 8
-11 16 -11 43 -1 17 7 32 18 32 25 0 7 5 13 10 13 6 0 10 -11 10 -25 0 -14 5
-25 10 -25 6 0 10 5 10 10 0 6 3 9 8 9 21 -4 24 3 6 17 -10 8 -13 12 -6 9 9
-5 15 1 19 14 8 29 25 15 20 -17z m-2579 10 c2 -7 -3 -12 -12 -12 -9 0 -16 7
-16 16 0 17 22 14 28 -4z m2196 -125 c-22 -12 -59 -4 -59 13 0 21 47 30 62 11
9 -13 8 -18 -3 -24z m-2118 6 c-10 -10 -19 5 -10 18 6 11 8 11 12 0 2 -7 1
-15 -2 -18z m-31 7 c3 -5 -1 -10 -9 -10 -9 0 -16 5 -16 10 0 6 4 10 9 10 6 0
13 -4 16 -10z m3029 -83 c4 4 5 1 2 -7 -2 -8 -7 -27 -10 -42 -4 -19 -13 -28
-25 -28 -11 0 -21 -8 -23 -17 -2 -12 -6 -14 -11 -6 -4 6 0 18 8 26 11 12 12
17 2 20 -8 3 -6 9 7 19 13 10 15 17 8 22 -7 4 -12 14 -12 22 0 12 3 12 23 -1
13 -8 27 -12 31 -8z m-1261 -80 c-4 -6 0 -8 11 -4 14 6 15 3 6 -13 -6 -11 -14
-20 -17 -20 -3 0 -3 3 0 7 4 3 0 14 -8 23 -13 14 -13 17 0 17 8 0 11 -5 8 -10z
m-18 -25 c-3 -3 -11 0 -18 7 -9 10 -8 11 6 5 10 -3 15 -9 12 -12z m10 -22 c3
-5 1 -10 -4 -10 -6 0 -11 5 -11 10 0 6 2 10 4 10 3 0 8 -4 11 -10z m770 -50
c3 -5 1 -10 -4 -10 -6 0 -11 5 -11 10 0 6 2 10 4 10 3 0 8 -4 11 -10z m1155
-150 c-7 -4 -10 -12 -6 -18 3 -5 -6 -22 -19 -38 -23 -27 -25 -27 -25 -8 0 42
49 110 59 83 2 -6 -2 -15 -9 -19z m-858 -62 c-2 -10 -8 -15 -13 -12 -5 3 -9
-4 -9 -15 0 -12 -6 -21 -13 -21 -10 0 -13 16 -12 58 1 31 3 59 4 62 4 15 47
-57 43 -72z m-729 -87 c3 -11 -1 -22 -8 -25 -13 -5 -28 28 -17 38 10 11 20 6
25 -13z m1509 -74 c-3 -12 -16 -32 -29 -44 l-23 -22 0 23 c0 13 7 27 16 30 9
4 14 9 11 12 -7 8 16 33 25 28 3 -2 4 -14 0 -27z m-1105 -53 c-3 -3 -12 -4
-19 -1 -8 3 -5 6 6 6 11 1 17 -2 13 -5z m1008 -190 c-9 -77 -50 -144 -88 -144
-16 0 -26 4 -22 10 3 6 13 10 21 10 8 0 14 6 14 14 0 8 6 21 13 28 6 7 12 19
13 26 1 6 2 20 3 30 1 19 37 82 47 82 3 0 3 -25 -1 -56z m-114 -228 c-11 -25
-21 -51 -21 -56 0 -16 -31 -74 -44 -82 -15 -10 -56 -10 -56 0 0 5 9 18 21 30
11 12 18 26 15 31 -3 5 1 14 8 21 8 6 17 24 21 39 8 36 54 86 68 72 7 -7 3
-24 -12 -55z m-180 -205 c-11 -7 -10 -10 5 -14 10 -2 2 -5 -19 -6 -27 -1 -36
2 -31 11 5 8 2 9 -10 5 -10 -4 -15 -3 -11 3 3 6 23 10 43 10 25 0 33 -3 23 -9z"/>
<path d="M2830 2798 c0 -5 -4 -6 -10 -3 -5 3 -10 3 -10 -2 0 -4 -13 -14 -30
-21 -16 -7 -39 -24 -52 -37 -13 -14 -29 -25 -36 -25 -7 0 -10 -4 -7 -10 3 -5
-2 -21 -11 -35 -16 -25 -16 -27 5 -46 12 -11 19 -25 15 -30 -10 -17 6 -79 20
-79 8 0 16 -8 18 -18 5 -16 97 -72 119 -72 5 0 9 7 9 15 0 9 16 25 35 36 37
22 46 33 19 22 -12 -4 -15 -2 -12 8 3 8 11 14 19 14 8 0 18 6 22 13 4 6 15 12
22 12 8 0 15 5 15 10 0 6 11 10 25 10 14 0 25 4 25 8 0 5 6 9 13 10 6 1 29 4
51 6 23 3 49 15 65 30 16 15 39 26 54 26 15 0 27 4 27 8 0 11 -64 72 -75 72
-19 1 -55 39 -55 58 0 16 -9 21 -45 27 -61 9 -235 4 -235 -7z m270 -28 c0 -5
-4 -10 -9 -10 -6 0 -13 5 -16 10 -3 6 1 10 9 10 9 0 16 -4 16 -10z m-236 -81
c3 -17 15 -44 27 -60 18 -25 18 -29 4 -29 -25 0 -55 19 -55 35 0 7 -5 15 -10
17 -12 4 7 68 20 68 4 0 10 -14 14 -31z m266 6 c17 -9 30 -20 30 -25 0 -11
-80 -65 -108 -72 l-22 -6 20 25 c11 14 20 32 20 39 0 13 21 54 28 54 2 0 16
-7 32 -15z"/>
<path d="M3220 2734 c0 -14 41 -57 48 -49 3 3 -6 18 -21 33 -15 14 -27 22 -27
16z"/>
<path d="M2600 1321 c-16 -4 -21 -9 -13 -14 7 -4 27 -1 45 7 35 15 15 20 -32
7z"/>
<path d="M2550 1300 c0 -5 5 -10 10 -10 6 0 10 5 10 10 0 6 -4 10 -10 10 -5 0
-10 -4 -10 -10z"/>
<path d="M2908 1233 c7 -3 16 -2 19 1 4 3 -2 6 -13 5 -11 0 -14 -3 -6 -6z"/>
<path d="M2940 1209 c0 -5 5 -7 10 -4 6 3 10 8 10 11 0 2 -4 4 -10 4 -5 0 -10
-5 -10 -11z"/>
<path d="M2545 731 c-3 -5 -1 -12 5 -16 5 -3 10 1 10 9 0 18 -6 21 -15 7z"/>
<path d="M3200 1210 c0 -5 5 -10 10 -10 6 0 10 5 10 10 0 6 -4 10 -10 10 -5 0
-10 -4 -10 -10z"/>
<path d="M165 4970 c-3 -5 1 -10 9 -10 9 0 16 5 16 10 0 6 -4 10 -9 10 -6 0
-13 -4 -16 -10z"/>
<path d="M260 4763 c-3 -23 -2 -39 3 -34 5 5 7 24 5 42 -3 33 -4 33 -8 -8z"/>
<path d="M698 4793 c7 -3 16 -2 19 1 4 3 -2 6 -13 5 -11 0 -14 -3 -6 -6z"/>
<path d="M827 4754 c-10 -10 -9 -42 2 -49 14 -8 19 6 12 33 -3 13 -9 20 -14
16z"/>
<path d="M743 4677 c-11 -23 -3 -112 11 -135 6 -11 12 -10 32 2 33 22 34 21
34 -24 0 -22 5 -40 10 -40 6 0 10 33 10 79 0 44 -4 83 -10 86 -5 3 -10 18 -10
33 0 19 -3 23 -11 15 -8 -8 -8 -17 0 -32 8 -14 8 -21 1 -21 -5 0 -10 -18 -10
-40 0 -23 -5 -40 -11 -40 -8 0 -10 17 -7 50 4 38 1 55 -12 70 -17 19 -17 19
-27 -3z"/>
<path d="M653 4553 c15 -2 37 -2 50 0 12 2 0 4 -28 4 -27 0 -38 -2 -22 -4z"/>
<path d="M630 4522 c0 -4 17 -6 38 -4 58 5 62 10 10 11 -27 1 -48 -3 -48 -7z"/>
<path d="M643 4323 c15 -2 39 -2 55 0 15 2 2 4 -28 4 -30 0 -43 -2 -27 -4z"/>
<path d="M0 4300 c0 -17 7 -20 40 -20 33 0 40 -3 40 -20 0 -17 7 -20 43 -20
l43 0 -4 40 -4 40 -79 0 c-72 0 -79 -2 -79 -20z"/>
<path d="M320 4250 c0 -32 0 -32 38 -25 20 3 40 10 44 13 13 13 -7 30 -45 37
-37 7 -37 7 -37 -25z"/>
<path d="M285 4220 c-3 -5 -1 -10 4 -10 6 0 11 5 11 10 0 6 -2 10 -4 10 -3 0
-8 -4 -11 -10z"/>
<path d="M240 4170 c0 -5 19 -10 43 -10 31 0 38 3 27 10 -20 13 -70 13 -70 0z"/>
<path d="M631 4028 c-1 -31 4 -60 10 -64 18 -11 34 15 34 57 1 30 -3 39 -16
39 -10 0 -20 6 -22 13 -3 6 -6 -14 -6 -45z"/>
<path d="M420 4020 c0 -11 5 -20 10 -20 6 0 10 9 10 20 0 11 -4 20 -10 20 -5
0 -10 -9 -10 -20z"/>
<path d="M472 4020 c0 -14 2 -19 5 -12 2 6 2 18 0 25 -3 6 -5 1 -5 -13z"/>
<path d="M355 3943 c-3 -10 -1 -19 4 -21 6 -2 11 -21 11 -43 0 -28 4 -39 15
-39 9 0 15 9 15 24 0 13 7 29 15 36 13 10 12 15 -3 36 -20 28 -47 31 -57 7z"/>
<path d="M480 3879 c0 -5 5 -7 10 -4 6 3 10 8 10 11 0 2 -4 4 -10 4 -5 0 -10
-5 -10 -11z"/>
<path d="M140 3829 c0 -6 -9 -9 -20 -6 -17 4 -20 0 -20 -28 0 -42 5 -45 58
-38 41 6 42 6 42 44 0 37 -2 39 -30 39 -16 0 -30 -5 -30 -11z"/>
<path d="M303 3833 c-19 -4 -23 -11 -23 -39 0 -27 4 -34 20 -34 11 0 20 -4 20
-10 0 -5 14 -10 30 -10 27 0 30 3 30 30 0 17 5 30 10 30 6 0 10 6 10 14 0 11
-49 29 -69 25 -3 -1 -16 -4 -28 -6z m57 -18 c0 -8 -9 -15 -20 -15 -11 0 -20 7
-20 15 0 8 9 15 20 15 11 0 20 -7 20 -15z"/>
<path d="M408 3763 c6 -2 18 -2 25 0 6 3 1 5 -13 5 -14 0 -19 -2 -12 -5z"/>
<path d="M460 3745 c0 -8 5 -15 10 -15 6 0 10 7 10 15 0 8 -4 15 -10 15 -5 0
-10 -7 -10 -15z"/>
<path d="M657 3723 c-2 -4 -1 -17 3 -27 6 -19 7 -19 14 -1 7 19 -8 44 -17 28z"/>
<path d="M580 3690 c0 -5 11 -10 25 -10 14 0 25 5 25 10 0 6 -11 10 -25 10
-14 0 -25 -4 -25 -10z"/>
<path d="M118 3578 c-49 -13 -48 -23 2 -36 40 -10 40 -10 40 19 0 16 -1 29 -2
28 -2 -1 -20 -6 -40 -11z"/>
<path d="M3480 3570 c0 -5 5 -10 11 -10 5 0 7 5 4 10 -3 6 -8 10 -11 10 -2 0
-4 -4 -4 -10z"/>
<path d="M352 3538 c-7 -7 -12 -31 -12 -55 0 -27 -5 -43 -12 -43 -7 0 6 -18
27 -40 l39 -40 -27 0 c-20 0 -27 -5 -27 -20 0 -11 5 -20 10 -20 6 0 10 -9 10
-20 0 -24 6 -25 26 -6 8 8 14 31 14 50 0 27 8 43 34 68 l34 32 -17 35 c-27 61
-71 87 -99 59z"/>
<path d="M160 3485 c0 -26 -3 -33 -15 -29 -8 4 -15 1 -15 -5 0 -6 7 -11 15
-11 8 0 15 -9 15 -20 0 -16 7 -20 30 -20 l30 0 0 60 0 60 -30 0 c-28 0 -30 -3
-30 -35z"/>
<path d="M642 3450 c0 -14 2 -19 5 -12 2 6 2 18 0 25 -3 6 -5 1 -5 -13z"/>
<path d="M560 3430 c0 -5 7 -10 15 -10 8 0 15 5 15 10 0 6 -7 10 -15 10 -8 0
-15 -4 -15 -10z"/>
<path d="M635 3359 c-4 -6 -5 -12 -2 -15 2 -3 7 2 10 11 7 17 1 20 -8 4z"/>
<path d="M115 3350 c3 -5 8 -10 11 -10 2 0 4 5 4 10 0 6 -5 10 -11 10 -5 0 -7
-4 -4 -10z"/>
<path d="M190 3320 c0 -11 5 -20 10 -20 6 0 10 9 10 20 0 11 -4 20 -10 20 -5
0 -10 -9 -10 -20z"/>
<path d="M462 3300 c0 -14 2 -19 5 -12 2 6 2 18 0 25 -3 6 -5 1 -5 -13z"/>
<path d="M145 3270 c3 -5 8 -10 11 -10 2 0 4 5 4 10 0 6 -5 10 -11 10 -5 0 -7
-4 -4 -10z"/>
<path d="M300 3270 c0 -5 5 -10 10 -10 6 0 10 5 10 10 0 6 -4 10 -10 10 -5 0
-10 -4 -10 -10z"/>
<path d="M435 3222 c-5 -4 -11 -28 -13 -54 -2 -43 0 -48 19 -48 20 0 21 4 15
40 -5 33 -3 40 10 40 14 0 14 2 0 15 -17 17 -17 17 -31 7z"/>
<path d="M318 3003 c-3 -176 -3 -178 -25 -181 -13 -2 -23 -8 -23 -13 0 -5 -5
-9 -11 -9 -19 0 -39 -28 -39 -54 0 -18 5 -26 18 -26 9 0 34 -3 54 -6 33 -6 36
-5 31 14 -3 14 1 22 15 26 30 10 42 50 42 146 0 49 5 92 10 95 6 3 10 31 10
61 0 49 -4 58 -35 89 -19 19 -37 35 -39 35 -3 0 -7 -80 -8 -177z m40 -24 c-2
-6 -8 -10 -13 -10 -5 0 -11 4 -13 10 -2 6 4 11 13 11 9 0 15 -5 13 -11z"/>
<path d="M130 3036 c0 -2 7 -9 15 -16 12 -10 15 -10 15 4 0 9 -7 16 -15 16 -8
0 -15 -2 -15 -4z"/>
<path d="M416 2979 c-7 -72 2 -171 18 -181 8 -5 7 -13 -1 -28 -19 -30 -16 -40
15 -40 21 0 24 -2 12 -10 -13 -8 -12 -10 3 -10 10 0 20 7 23 15 4 8 10 15 16
15 15 0 38 27 38 44 0 19 16 21 24 4 5 -10 7 -10 12 0 3 6 12 12 20 12 8 0 14
4 14 9 0 17 -32 42 -46 37 -7 -3 -16 -1 -19 4 -4 6 -1 10 4 10 6 0 11 5 11 10
0 6 -7 10 -15 10 -8 0 -15 6 -15 14 0 24 -21 30 -27 7 -12 -46 -23 -17 -23 59
l0 80 -29 0 c-27 0 -28 -2 -35 -61z m84 -169 c0 -5 -4 -10 -10 -10 -5 0 -10 5
-10 10 0 6 5 10 10 10 6 0 10 -4 10 -10z"/>
<path d="M2522 3015 c0 -16 2 -22 5 -12 2 9 2 23 0 30 -3 6 -5 -1 -5 -18z"/>
<path d="M1 2974 c0 -11 3 -14 6 -6 3 7 2 16 -1 19 -3 4 -6 -2 -5 -13z"/>
<path d="M280 2870 c0 -5 7 -10 15 -10 8 0 15 5 15 10 0 6 -7 10 -15 10 -8 0
-15 -4 -15 -10z"/>
<path d="M140 2785 c0 -8 5 -15 10 -15 6 0 10 7 10 15 0 8 -4 15 -10 15 -5 0
-10 -7 -10 -15z"/>
<path d="M160 2740 c0 -11 5 -20 10 -20 6 0 10 9 10 20 0 11 -4 20 -10 20 -5
0 -10 -9 -10 -20z"/>
<path d="M15 2490 c-3 -5 1 -10 9 -10 9 0 16 5 16 10 0 6 -4 10 -9 10 -6 0
-13 -4 -16 -10z"/>
<path d="M60 2464 c0 -8 7 -22 15 -30 13 -14 15 -12 15 15 0 21 -5 31 -15 31
-8 0 -15 -7 -15 -16z"/>
<path d="M0 2338 l1 -63 20 24 c17 21 23 23 40 13 17 -11 19 -9 19 12 0 19 -4
23 -20 19 -16 -4 -21 1 -26 26 -4 17 -13 31 -20 31 -10 0 -14 -16 -14 -62z"/>
<path d="M240 2370 c0 -5 18 -10 40 -10 22 0 40 5 40 10 0 6 -18 10 -40 10
-22 0 -40 -4 -40 -10z"/>
<path d="M3623 2005 c-6 -14 -9 -34 -6 -45 9 -35 20 -22 20 25 0 25 -1 45 -1
45 -1 0 -6 -11 -13 -25z"/>
<path d="M3645 1920 c-3 -5 -1 -10 4 -10 6 0 11 5 11 10 0 6 -2 10 -4 10 -3 0
-8 -4 -11 -10z"/>
<path d="M2550 1899 c-14 -5 -30 -17 -36 -27 -11 -17 -6 -18 55 -20 36 -2 70
-7 75 -12 18 -18 36 -10 36 15 0 43 -69 67 -130 44z"/>
<path d="M3750 1835 c-23 -61 -31 -123 -25 -192 4 -40 11 -75 16 -79 15 -9 58
48 65 86 9 43 -13 180 -31 199 -12 12 -16 11 -25 -14z"/>
<path d="M3617 1793 c-4 -3 -7 -11 -7 -17 0 -6 5 -5 12 2 6 6 9 14 7 17 -3 3
-9 2 -12 -2z"/>
<path d="M3633 1543 c-15 -32 -17 -62 -4 -47 9 9 26 74 19 74 -2 0 -9 -12 -15
-27z"/>
<path d="M3511 1514 c0 -11 3 -14 6 -6 3 7 2 16 -1 19 -3 4 -6 -2 -5 -13z"/>
<path d="M3320 1340 c-8 -5 -11 -13 -6 -17 5 -4 11 -2 13 5 3 6 9 10 14 6 5
-3 9 0 9 5 0 13 -10 14 -30 1z"/>
<path d="M3350 1165 c0 -8 2 -15 4 -15 2 0 6 7 10 15 3 8 1 15 -4 15 -6 0 -10
-7 -10 -15z"/>
<path d="M3267 1123 c-14 -21 -23 -41 -20 -46 6 -11 23 2 23 18 0 7 9 17 20
20 21 7 27 30 10 40 -5 3 -20 -11 -33 -32z"/>
<path d="M2678 113 c7 -3 16 -2 19 1 4 3 -2 6 -13 5 -11 0 -14 -3 -6 -6z"/>
</g>
</svg>
